<?xml version="1.0" standalone="no"?><!DOCTYPE svg PUBLIC "-//W3C//DTD SVG 1.1//EN" "http://www.w3.org/Graphics/SVG/1.1/DTD/svg11.dtd"><svg t="1554376608809" class="icon" style="" viewBox="0 0 1024 1024" version="1.1" xmlns="http://www.w3.org/2000/svg" p-id="3556" xmlns:xlink="http://www.w3.org/1999/xlink" width="200" height="200"><defs><style type="text/css"></style></defs><path d="M805.3 272c29.4 0 54.6 10.4 75.4 31.3 20.9 20.9 31.3 45.9 31.3 75.4V752c0 29.4-10.4 54.6-31.3 75.4-20.9 20.9-45.9 31.3-75.4 31.3H218.7c-29.4 0-54.6-10.4-75.4-31.3S112 781.5 112 752V378.6c0-29.4 10.4-54.6 31.3-75.4s45.9-31.3 75.4-31.3h93.4l21.2-56.6c5.2-13.6 15-25.4 29-35.2 14-9.8 28.4-14.8 43.1-14.8h213.3c14.8 0 29.1 4.9 43.1 14.8 14 9.8 23.7 21.6 29 35.2l21.2 56.6h93.5v0.1zM380.2 697.1c36.5 36.5 80.5 54.8 131.8 54.8 51.4 0 95.3-18.3 131.8-54.8 36.5-36.5 54.8-80.5 54.8-131.8 0-51.4-18.3-95.3-54.8-131.8-36.5-36.5-80.5-54.8-131.8-54.8s-95.3 18.3-131.8 54.8-54.8 80.5-54.8 131.8c0 51.3 18.2 95.3 54.8 131.8z m47.1-216.6c23.5-23.5 51.7-35.2 84.7-35.2s61.3 11.7 84.7 35.2c23.5 23.5 35.2 51.7 35.2 84.7s-11.7 61.3-35.2 84.7c-23.5 23.5-51.7 35.2-84.7 35.2s-61.3-11.7-84.7-35.2c-23.5-23.5-35.2-51.7-35.2-84.7s11.7-61.2 35.2-84.7z" p-id="3557" fill="#ffd110"></path></svg>