<?xml version="1.0" standalone="no"?><!DOCTYPE svg PUBLIC "-//W3C//DTD SVG 1.1//EN" "http://www.w3.org/Graphics/SVG/1.1/DTD/svg11.dtd"><svg t="1554795766792" class="icon" style="" viewBox="0 0 1024 1024" version="1.1" xmlns="http://www.w3.org/2000/svg" p-id="1641" xmlns:xlink="http://www.w3.org/1999/xlink" width="200" height="200"><defs><style type="text/css"></style></defs><path d="M680 310.4l-154.4-40.8c-11.2 42.4-47.2 74.4-90.4 79.2-134.4 16.8-247.2 102.4-280 228-44.8 171.2 74.4 350.4 267.2 400.8s384.8-47.2 429.6-217.6c32.8-125.6-23.2-256.8-132-336.8-36-24.8-51.2-70.4-40-112.8z" fill="#EEEEEE" p-id="1642"></path><path d="M317.6 522.4c-7.2 0-13.6-3.2-18.4-8.8-8-10.4-6.4-25.6 3.2-33.6 21.6-17.6 47.2-32 75.2-42.4 38.4-14.4 80.8-20.8 123.2-18.4 13.6 0.8 23.2 12 22.4 25.6-0.8 13.6-12 23.2-25.6 22.4-36-1.6-72 3.2-104 15.2-23.2 8.8-43.2 20-61.6 34.4-4 4-8.8 5.6-14.4 5.6zM380 884c-4 0-8-0.8-11.2-3.2-112-60-171.2-177.6-142.4-284.8 3.2-12.8 16.8-20.8 29.6-16.8 12.8 3.2 20.8 16.8 16.8 29.6-22.4 85.6 26.4 180 119.2 230.4 12 6.4 16 20.8 9.6 32.8-4.8 7.2-12.8 12-21.6 12z" fill="#B8BCB8" p-id="1643"></path><path d="M421.6 796.8c-4 0-8-0.8-12-3.2-71.2-40.8-107.2-109.6-90.4-172.8 5.6-20.8 16.8-40 32.8-56 9.6-9.6 24.8-9.6 33.6 0 9.6 9.6 9.6 24.8 0 33.6-10.4 10.4-16.8 21.6-20 34.4-10.4 40.8 17.6 89.6 68 119.2 11.2 6.4 15.2 21.6 8.8 32.8-4.8 8-12.8 12-20.8 12zM440.8 567.2c-11.2 0-20.8-7.2-23.2-18.4-3.2-12.8 4.8-25.6 18.4-28.8 15.2-3.2 31.2-4.8 47.2-5.6 13.6 0 24 10.4 24 24s-10.4 24-24 24c-12.8 0-24.8 1.6-36.8 4-1.6 0.8-3.2 0.8-5.6 0.8z" fill="#B8BCB8" p-id="1644"></path><path d="M455.2 704c-5.6 0-10.4-1.6-15.2-5.6-13.6-11.2-29.6-31.2-28.8-48 0.8-13.6 12-23.2 25.6-22.4 11.2 0.8 20.8 9.6 22.4 20 1.6 2.4 4.8 8 12 13.6 10.4 8.8 12 23.2 3.2 33.6-5.6 5.6-12.8 8.8-19.2 8.8z m3.2-51.2z" fill="#B8BCB8" p-id="1645"></path><path d="M719.2 424c-35.2-26.4-50.4-71.2-39.2-113.6-40.8-10.4-80.8 16.8-86.4 57.6-9.6 69.6-25.6 148-46.4 229.6-40.8 156-94.4 291.2-144.8 375.2 6.4 2.4 13.6 4 20 5.6 192 50.4 384.8-47.2 429.6-217.6 32-126.4-24-256.8-132.8-336.8z" fill="#FFD110" p-id="1646"></path><path d="M860 667.2c-2.4-37.6-56-42.4-65.6-5.6 0 0.8 0 1.6-0.8 1.6-19.2 72.8-61.6 127.2-116.8 152.8-27.2 12.8-56-14.4-45.6-42.4v-0.8c4-11.2 0-24-10.4-29.6-13.6-8-30.4-1.6-35.2 12.8-5.6 16-11.2 30.4-16.8 44-7.2 16.8-26.4 24.8-43.2 18.4-15.2-5.6-31.2-12.8-47.2-22.4-13.6 29.6-63.2 155.2-76.8 177.6 6.4 2.4 13.6 4 20 5.6 28.8 7.2 57.6 12 86.4 12.8 160.8 6.4 305.6-85.6 343.2-231.2 8-31.2 10.4-63.2 8.8-93.6z" fill="#E0B70A" p-id="1647"></path><path d="M401.6 996.8c-4 0-8.8-0.8-12-3.2-11.2-7.2-15.2-21.6-8-32.8C432 875.2 484 740.8 523.2 592c12-47.2 23.2-93.6 31.2-139.2 2.4-12.8 15.2-21.6 28-19.2 12.8 2.4 21.6 15.2 19.2 28-8.8 46.4-20 94.4-32 142.4-40 152.8-94.4 292-148 380.8-4 8-12 12-20 12z" fill="#444B54" p-id="1648"></path><path d="M523.2 1016c-35.2 0-72-4.8-108-14.4-6.4-1.6-13.6-4-21.6-6.4-12.8-4-20-17.6-15.2-30.4 4-12.8 17.6-20 30.4-15.2 7.2 2.4 12.8 4 19.2 5.6 179.2 47.2 358.4-43.2 400-200.8 3.2-12.8 16.8-20.8 29.6-16.8 12.8 3.2 20.8 16.8 16.8 29.6-40 150.4-186.4 248.8-351.2 248.8z" fill="#444B54" p-id="1649"></path><path d="M284.8 937.6c-4.8 0-10.4-1.6-14.4-4.8C152 844 96.8 702.4 131.2 571.2 165.6 440 284 344 432 325.6c33.6-4 61.6-28.8 70.4-61.6 3.2-12.8 16.8-20.8 29.6-16.8 12.8 3.2 20.8 16.8 16.8 29.6-13.6 52.8-57.6 90.4-110.4 97.6-128.8 16-230.4 98.4-260 210.4-29.6 111.2 18.4 233.6 121.6 310.4 10.4 8 12.8 23.2 4.8 33.6-5.6 4.8-12.8 8.8-20 8.8zM851.2 784.8c-2.4 0-4 0-6.4-0.8-12.8-3.2-20.8-16.8-16.8-29.6 29.6-112-18.4-234.4-122.4-311.2-43.2-32-62.4-86.4-48.8-139.2 3.2-12.8 16.8-20.8 29.6-16.8 12.8 3.2 20.8 16.8 16.8 29.6-8.8 33.6 3.2 68 30.4 88 120 88.8 175.2 230.4 140.8 362.4-3.2 10.4-12.8 17.6-23.2 17.6z" fill="#444B54" p-id="1650"></path><path d="M792 1016H232c-13.6 0-24-10.4-24-24s10.4-24 24-24h560c13.6 0 24 10.4 24 24s-10.4 24-24 24z" fill="#444B54" p-id="1651"></path><path d="M912 1016c-6.4 0-12.8-2.4-16.8-7.2-0.8-0.8-2.4-2.4-3.2-4-0.8-1.6-1.6-2.4-2.4-4-0.8-1.6-0.8-3.2-1.6-4.8 0-1.6-0.8-3.2-0.8-4.8 0-1.6 0-3.2 0.8-4.8 0-1.6 0.8-3.2 1.6-4.8 0.8-1.6 1.6-2.4 2.4-4 0.8-1.6 1.6-2.4 3.2-4 5.6-5.6 13.6-8 21.6-6.4 1.6 0 3.2 0.8 4.8 1.6 1.6 0.8 3.2 1.6 4 2.4 1.6 0.8 2.4 1.6 4 3.2 0.8 0.8 2.4 2.4 3.2 4 0.8 1.6 1.6 2.4 2.4 4 0.8 1.6 0.8 3.2 1.6 4.8 0 1.6 0.8 3.2 0.8 4.8 0 1.6 0 3.2-0.8 4.8 0 1.6-0.8 3.2-1.6 4.8s-1.6 3.2-2.4 4c-0.8 1.6-1.6 2.4-3.2 4-0.8 0.8-2.4 2.4-4 3.2-1.6 0.8-2.4 1.6-4 2.4-1.6 0.8-3.2 0.8-4.8 1.6-1.6-0.8-3.2-0.8-4.8-0.8z" fill="#444B54" p-id="1652"></path></svg>