<?xml version="1.0" standalone="no"?><!DOCTYPE svg PUBLIC "-//W3C//DTD SVG 1.1//EN" "http://www.w3.org/Graphics/SVG/1.1/DTD/svg11.dtd"><svg t="1554623260719" class="icon" style="" viewBox="0 0 1024 1024" version="1.1" xmlns="http://www.w3.org/2000/svg" p-id="1774" xmlns:xlink="http://www.w3.org/1999/xlink" width="200" height="200"><defs><style type="text/css"></style></defs><path d="M853.6 676c-6.4-2.4-19.2-4.8-19.2-4.8 46.4 0.8 90.4-26.4 108-72.8 21.6-57.6-8-122.4-65.6-144-25.6-9.6-52.8-8.8-76-0.8l-0.8-3.2c20-15.2 36-36 45.6-61.6 27.2-72.8-9.6-152.8-82.4-180s-152.8 9.6-180 82.4c-11.2 30.4-11.2 62.4-2.4 91.2-11.2-28-33.6-51.2-64-62.4-57.6-21.6-122.4 8-144 65.6-16.8 45.6-2.4 96 33.6 125.6 0 0-11.2-6.4-17.6-8.8-57.6-21.6-122.4 8-144 65.6-10.4 28-8 55.2 2.4 80.8 55.2 140 234.4 196 274.4 206.4 37.6 18.4 209.6 93.6 342.4 24 24.8-12.8 44.8-32 55.2-60 21.6-56.8-7.2-121.6-65.6-143.2z" fill="#2B9E7D" p-id="1775"></path><path d="M893.6 680c-8 0-16-4-20.8-12-6.4-11.2-2.4-26.4 8.8-32.8 17.6-10.4 31.2-25.6 38.4-44.8 8-22.4 7.2-45.6-2.4-67.2s-27.2-37.6-49.6-45.6c-19.2-7.2-40-7.2-60 0-6.4 2.4-14.4 1.6-20-2.4-6.4-4-10.4-9.6-11.2-16.8l-0.8-4c-1.6-8.8 2.4-17.6 8.8-22.4 17.6-13.6 30.4-31.2 37.6-51.2 22.4-60-8-127.2-68-149.6-36-13.6-76.8-8-108 14.4-10.4 8-25.6 4.8-33.6-5.6-8-10.4-4.8-25.6 5.6-33.6 44.8-32 101.6-39.2 152.8-20 40.8 15.2 73.6 45.6 92 85.6s20 84.8 4.8 125.6c-3.2 9.6-8 18.4-12.8 27.2 10.4 1.6 20 4 30.4 7.2 70.4 26.4 106.4 104.8 80 175.2-11.2 29.6-32 54.4-59.2 69.6-4 2.4-8 3.2-12.8 3.2zM736.8 932.8c-14.4 0-28.8-0.8-43.2-2.4-12.8-1.6-22.4-12.8-21.6-26.4 1.6-12.8 13.6-22.4 26.4-21.6 60 6.4 112-1.6 154.4-24 21.6-11.2 36-26.4 44-47.2 8-22.4 7.2-46.4-3.2-68-5.6-12-0.8-26.4 11.2-32 12-5.6 26.4-0.8 32 11.2 16 33.6 17.6 71.2 4 105.6-12 32-34.4 56.8-66.4 72.8-39.2 21.6-85.6 32-137.6 32z" fill="#444B54" p-id="1776"></path><path d="M682.4 593.6c-6.4 0-19.2 1.6-19.2 1.6 44-15.2 75.2-56.8 75.2-105.6 0-61.6-50.4-112-112-112-27.2 0-52 9.6-72 26.4l-1.6-3.2c13.6-21.6 21.6-46.4 21.6-73.6 0-77.6-62.4-140-140-140s-140 62.4-140 140c0 32.8 11.2 62.4 29.6 86.4-20.8-21.6-49.6-36-81.6-36-61.6 0-112 50.4-112 112 0 48.8 32 90.4 75.2 105.6 0 0-12.8-1.6-19.2-1.6-61.6 0-112 50.4-112 112 0 29.6 12 54.4 30.4 75.2 100.8 112 288 101.6 329.6 97.6 41.6 4 228.8 14.4 329.6-97.6 19.2-20.8 30.4-45.6 30.4-75.2 0-62.4-50.4-112-112-112z" fill="#52DDB2" p-id="1777"></path><path d="M324.8 900.8h-2.4c-71.2-7.2-169.6-31.2-235.2-104.8-8.8-9.6-8-24.8 1.6-33.6s24.8-8 33.6 1.6c55.2 61.6 141.6 82.4 204 88.8 12.8 1.6 22.4 12.8 21.6 26.4-0.8 12.8-11.2 21.6-23.2 21.6z" fill="#444B54" p-id="1778"></path><path d="M104.8 804c-6.4 0-12.8-2.4-17.6-8-24.8-26.4-36.8-57.6-36.8-91.2 0-58.4 36.8-108 88.8-127.2-20.8-24-32.8-55.2-32.8-88.8 0-64.8 46.4-121.6 110.4-133.6 12.8-2.4 25.6 6.4 28 19.2 2.4 12.8-6.4 25.6-19.2 28-41.6 8-71.2 44-71.2 86.4 0 37.6 24 71.2 59.2 83.2 12 4 18.4 16 15.2 28-3.2 12-14.4 20-26.4 18.4-4.8-0.8-12.8-1.6-16-1.6-48.8 0-88 39.2-88 88 0 22.4 8 41.6 24 59.2 8.8 9.6 8.8 24.8-1.6 33.6-4 4.8-9.6 6.4-16 6.4zM324 436.8c-7.2 0-14.4-3.2-19.2-8.8-23.2-28.8-35.2-64-35.2-100.8 0-90.4 73.6-164 164-164s164 73.6 164 164c0 13.6-10.4 24-24 24s-24-10.4-24-24c0-64-52-116-116-116s-116 52-116 116c0 26.4 8.8 50.4 24.8 71.2 8 10.4 6.4 25.6-4 33.6-4 3.2-8.8 4.8-14.4 4.8zM488.8 904c-14.4 0-29.6-0.8-45.6-1.6-13.6-0.8-23.2-12-22.4-25.6 0.8-13.6 12-23.2 25.6-22.4 48 3.2 212 6.4 299.2-90.4 8.8-9.6 24-10.4 33.6-1.6 9.6 8.8 10.4 24 1.6 33.6-29.6 34.4-116 108-292 108z" fill="#444B54" p-id="1779"></path><path d="M764 804c-5.6 0-12-2.4-16-6.4-9.6-8.8-10.4-24-1.6-33.6 16-17.6 24-36.8 24-59.2 0-48.8-39.2-88-88-88-3.2 0-12 0.8-16 1.6-12 1.6-24-6.4-26.4-18.4s4-24 15.2-28c35.2-12 59.2-45.6 59.2-83.2 0-48.8-39.2-88-88-88-24.8 0-47.2 9.6-64 28-8.8 9.6-23.2 10.4-32.8 1.6-9.6-8-11.2-23.2-3.2-32.8 16-20.8 24.8-45.6 24.8-71.2 0-64-52-116-116-116-13.6 0-24-10.4-24-24s10.4-24 24-24c90.4 0 164 73.6 164 164 0 10.4-0.8 20-2.4 30.4 10.4-2.4 20-3.2 30.4-3.2 75.2 0 136 60.8 136 136 0 33.6-12 64-32.8 88.8 52 19.2 88.8 68.8 88.8 127.2 0 34.4-12.8 64.8-36.8 91.2-5.6 4.8-12 7.2-18.4 7.2zM472.8 1005.6c-7.2 0-14.4-3.2-19.2-9.6-4-4.8-94.4-128.8-44-640.8 1.6-12.8 12.8-23.2 26.4-21.6 12.8 1.6 23.2 12.8 21.6 26.4-47.2 485.6 33.6 605.6 34.4 607.2 8 10.4 6.4 25.6-4 33.6-4.8 3.2-10.4 4.8-15.2 4.8z" fill="#444B54" p-id="1780"></path><path d="M403.2 620.8c-5.6 0-10.4-1.6-15.2-5.6l-78.4-64c-10.4-8-12-23.2-3.2-33.6 8-10.4 23.2-12 33.6-3.2l78.4 64c10.4 8 12 23.2 3.2 33.6-4.8 5.6-12 8.8-18.4 8.8zM422.4 527.2c-7.2 0-14.4-3.2-19.2-9.6-8-10.4-5.6-25.6 4.8-33.6l50.4-37.6c10.4-8 25.6-5.6 33.6 4.8 8 10.4 5.6 25.6-4.8 33.6l-50.4 37.6c-4.8 3.2-9.6 4.8-14.4 4.8zM492 724.8c-8 0-16-4-20.8-11.2-7.2-11.2-3.2-26.4 8-32.8l82.4-51.2c11.2-7.2 26.4-3.2 32.8 8 7.2 11.2 3.2 26.4-8 32.8L504 721.6c-3.2 1.6-8 3.2-12 3.2z" fill="#444B54" p-id="1781"></path><path d="M372.8 282.4c-6.4 0-12.8-2.4-17.6-8-8.8-9.6-8-24.8 1.6-33.6 21.6-19.2 48.8-29.6 77.6-29.6 13.6 0 24 10.4 24 24s-10.4 24-24 24c-16.8 0-32.8 6.4-45.6 17.6-4.8 3.2-10.4 5.6-16 5.6zM342.4 350.4c-1.6 0-3.2 0-4.8-0.8-1.6 0-3.2-0.8-4.8-1.6-1.6-0.8-2.4-1.6-4-2.4-1.6-0.8-2.4-1.6-4-3.2-4.8-4.8-7.2-10.4-7.2-16.8s2.4-12.8 7.2-16.8c8.8-8.8 24.8-8.8 33.6 0 0.8 0.8 2.4 2.4 3.2 4 0.8 1.6 1.6 2.4 2.4 4 0.8 1.6 0.8 3.2 1.6 4.8 0 1.6 0.8 3.2 0.8 4.8 0 1.6 0 3.2-0.8 4.8 0 1.6-0.8 3.2-1.6 4.8-0.8 1.6-1.6 3.2-2.4 4-0.8 1.6-1.6 2.4-3.2 4l-3.2 3.2c-1.6 0.8-2.4 1.6-4 2.4-1.6 0.8-3.2 0.8-4.8 1.6-0.8-0.8-2.4-0.8-4-0.8z" fill="#FFFFFF" p-id="1782"></path><path d="M704 1016H272c-13.6 0-24-10.4-24-24s10.4-24 24-24h432c13.6 0 24 10.4 24 24s-10.4 24-24 24z" fill="#444B54" p-id="1783"></path><path d="M824 1016c-1.6 0-3.2 0-4.8-0.8-1.6 0-3.2-0.8-4.8-1.6-1.6-0.8-2.4-1.6-4-2.4-1.6-0.8-2.4-1.6-3.2-3.2l-3.2-3.2c-0.8-1.6-1.6-2.4-2.4-4-0.8-1.6-0.8-3.2-1.6-4.8 0-1.6-0.8-3.2-0.8-4.8 0-1.6 0-3.2 0.8-4.8 0-1.6 0.8-3.2 1.6-4.8 0.8-1.6 1.6-2.4 2.4-4 0.8-1.6 1.6-2.4 3.2-4l3.2-3.2c1.6-0.8 2.4-1.6 4-2.4 1.6-0.8 3.2-0.8 4.8-1.6 3.2-0.8 6.4-0.8 9.6 0 1.6 0 3.2 0.8 4.8 1.6 1.6 0.8 3.2 1.6 4 2.4 1.6 0.8 2.4 1.6 3.2 3.2 0.8 0.8 2.4 2.4 3.2 4 0.8 1.6 1.6 2.4 2.4 4 0.8 1.6 0.8 3.2 1.6 4.8 0 1.6 0.8 3.2 0.8 4.8 0 1.6 0 3.2-0.8 4.8 0 1.6-0.8 3.2-1.6 4.8-0.8 1.6-1.6 3.2-2.4 4-0.8 1.6-1.6 2.4-3.2 3.2-4 5.6-10.4 8-16.8 8z" fill="#444B54" p-id="1784"></path></svg>