<?xml version="1.0" standalone="no"?><!DOCTYPE svg PUBLIC "-//W3C//DTD SVG 1.1//EN" "http://www.w3.org/Graphics/SVG/1.1/DTD/svg11.dtd"><svg t="1554281199987" class="icon" style="" viewBox="0 0 1024 1024" version="1.1" xmlns="http://www.w3.org/2000/svg" p-id="1901" xmlns:xlink="http://www.w3.org/1999/xlink" width="200" height="200"><defs><style type="text/css"></style></defs><path d="M716 720s68-107.2 189.6-4.8l9.6-67.2c-4.8-23.2-25.6-40.8-49.6-40.8-37.6-0.8-95.2-7.2-128 41.6-10.4 16-16.8 44.8-21.6 71.2z" fill="#2B9E7D" p-id="1902"></path><path d="M767.2 792.8c-6.4-24-17.6-45.6-32.8-63.2-40-46.4-53.6-108.8-36.8-167.2 6.4-22.4 8-46.4 3.2-71.2-16.8-89.6-104-147.2-192-127.2-1.6 0.8-4 0.8-6.4 1.6-13.6 4-27.2 10.4-40 17.6l-40 23.2c-51.2 29.6-104.8 56-159.2 76.8l-108.8 42.4c-51.2 20-84 79.2-71.2 136.8 3.2 14.4 8.8 27.2 16 39.2 28.8 45.6 40.8 100 33.6 152.8-1.6 13.6-1.6 28 1.6 42.4 12.8 57.6 67.2 97.6 122.4 93.6l116-7.2c59.2-4 118.4-3.2 177.6 2.4l46.4 4c14.4 1.6 29.6 1.6 44-0.8 2.4 0 4-0.8 6.4-0.8 88-18.4 143.2-107.2 120-195.2z" fill="#FFD110" p-id="1903"></path><path d="M133.6 855.2c-1.6 13.6-1.6 28 1.6 42.4 12.8 57.6 67.2 97.6 122.4 93.6l116-7.2c59.2-4 118.4-3.2 177.6 2.4 0 0 88.8-31.2 65.6-126.4C560.8 638.4 129.6 776 129.6 776c5.6 25.6 7.2 52.8 4 79.2z" fill="#E0B70A" p-id="1904"></path><path d="M456 859.2c-172.8 38.4-328 7.2-347.2-79.2s105.6-187.2 277.6-225.6 328 0.8 347.2 87.2-104.8 179.2-277.6 217.6z" fill="#FFD110" p-id="1905"></path><path d="M601.6 728c-44.8 26.4-100.8 48-162.4 61.6-91.2 20-177.6 18.4-240.8 0-38.4-11.2-48.8 54.4-2.4 71.2 65.6 24.8 160 28.8 260.8 6.4 64.8-14.4 122.4-37.6 168.8-65.6 76-46.4 36.8-109.6-24-73.6z" fill="#E0B70A" p-id="1906"></path><path d="M657.6 804c-7.2 0-14.4-3.2-19.2-9.6-8-10.4-5.6-25.6 4.8-33.6 44.8-33.6 69.6-70.4 68.8-102.4 0-4-0.8-8-1.6-11.2-7.2-32-40.8-52-67.2-62.4-12-4.8-18.4-19.2-13.6-31.2 4.8-12 19.2-18.4 31.2-13.6 53.6 21.6 87.2 54.4 96 96.8 1.6 7.2 2.4 13.6 2.4 20.8 0.8 48-30.4 98.4-88 141.6-4 3.2-8.8 4.8-13.6 4.8z" fill="#444B54" p-id="1907"></path><path d="M279.2 584.8c-2.4-11.2 4-23.2 15.2-28 28-10.4 57.6-19.2 88-26.4 50.4-11.2 100-16 148-15.2 13.6 0 24 11.2 23.2 24.8 0 13.6-11.2 24-24.8 23.2-44-0.8-89.6 3.2-136 13.6-28 6.4-55.2 14.4-81.6 24-12.8 4.8-26.4-1.6-31.2-14.4-0.8 0.8-0.8 0-0.8-1.6z" fill="#E0B70A" p-id="1908"></path><path d="M108.8 804c-11.2 0-20.8-8-23.2-19.2-9.6-42.4 7.2-87.2 48-129.6 9.6-9.6 24.8-9.6 33.6-0.8 9.6 9.6 9.6 24.8 0.8 33.6-20.8 20.8-43.2 53.6-36 86.4 3.2 12.8-5.6 25.6-18.4 28.8-0.8 0.8-2.4 0.8-4.8 0.8z" fill="#444B54" p-id="1909"></path><path d="M312 905.6c-47.2-1.6-90.4-8.8-125.6-22.4-28-10.4-51.2-24.8-68.8-41.6-16.8-16.8-28-36-32-56.8-3.2-12.8 5.6-25.6 18.4-28.8 12.8-3.2 25.6 5.6 28.8 18.4 2.4 12 8.8 23.2 19.2 32.8 12 12 29.6 22.4 52 30.4 30.4 11.2 68 17.6 109.6 19.2 13.6 0 24 11.2 23.2 24.8-0.8 13.6-11.2 24-24.8 24z" fill="#444B54" p-id="1910"></path><path d="M615.2 1016c-7.2 0-13.6 0-20.8-0.8l-46.4-4c-57.6-5.6-116-6.4-173.6-2.4l-116 7.2H256c-66.4 3.2-129.6-45.6-144.8-112.8-3.2-16-4-32.8-2.4-49.6l1.6-29.6c0.8-13.6 12-23.2 25.6-22.4 13.6 0.8 23.2 12 22.4 25.6l-1.6 30.4v1.6c-1.6 11.2-0.8 23.2 1.6 33.6 9.6 45.6 52.8 78.4 96.8 75.2h2.4l113.6-7.2c60-4 120.8-3.2 180.8 3.2l46.4 4c13.6 1.6 26.4 0.8 38.4-0.8 1.6 0 3.2-0.8 4.8-0.8 36-8 67.2-29.6 86.4-61.6 19.2-32 24.8-68.8 16-105.6-3.2-12.8 4-25.6 17.6-29.6 12.8-3.2 25.6 4 29.6 17.6 12.8 48.8 4.8 99.2-21.6 142.4-26.4 43.2-68 72.8-116.8 83.2-2.4 0.8-4.8 0.8-8 1.6-9.6 0.8-20 1.6-29.6 1.6zM80.8 663.2c-12.8 0-24-10.4-24-23.2C56 581.6 91.2 526.4 144 504.8c0.8 0 1.6-0.8 2.4-0.8l108.8-42.4c53.6-20.8 106.4-46.4 156-75.2l40-23.2c14.4-8.8 29.6-15.2 44.8-20 3.2-0.8 5.6-1.6 8-2.4 49.6-11.2 99.2-1.6 141.6 26.4 41.6 28 70.4 70.4 79.2 120 2.4 12.8-6.4 25.6-19.2 28-12.8 2.4-25.6-6.4-28-19.2-6.4-36.8-27.2-68-58.4-88.8-31.2-20.8-68-27.2-104.8-19.2-1.6 0-3.2 0.8-4.8 1.6-11.2 3.2-23.2 8.8-34.4 15.2l-40 23.2C382.4 457.6 328 484.8 272 506.4l-106.4 41.6c-0.8 0-1.6 0.8-2.4 0.8-35.2 13.6-59.2 50.4-58.4 90.4 0 12.8-10.4 24-24 24z" fill="#444B54" p-id="1911"></path><path d="M658.4 642.4c-4 0-8.8-0.8-12.8-3.2-21.6-12.8-56-22.4-97.6-25.6-13.6-0.8-23.2-12.8-22.4-25.6s12.8-23.2 25.6-22.4c48.8 4 90.4 15.2 118.4 32 11.2 7.2 15.2 21.6 8 32.8-3.2 8-11.2 12-19.2 12zM448.8 616.8c-6.4 0-12.8-2.4-16.8-7.2-4.8-4.8-7.2-10.4-7.2-16.8s2.4-12.8 7.2-16.8c5.6-5.6 13.6-8 21.6-6.4 1.6 0 3.2 0.8 4.8 1.6 1.6 0.8 2.4 1.6 4 2.4 1.6 0.8 2.4 1.6 4 3.2 0.8 0.8 2.4 2.4 3.2 4 0.8 1.6 1.6 2.4 2.4 4 0.8 1.6 0.8 3.2 1.6 4.8 0 1.6 0.8 3.2 0.8 4.8 0 1.6 0 3.2-0.8 4.8 0 1.6-0.8 3.2-1.6 4.8-0.8 1.6-1.6 3.2-2.4 4s-1.6 2.4-3.2 4c-0.8 0.8-2.4 2.4-4 3.2-1.6 0.8-2.4 1.6-4 2.4-1.6 0.8-3.2 0.8-4.8 1.6-1.6-2.4-3.2-2.4-4.8-2.4z" fill="#FFFFFF" p-id="1912"></path><path d="M716 744c-4 0-8.8-0.8-12.8-4-11.2-7.2-14.4-21.6-7.2-32.8 1.6-2.4 32-49.6 90.4-59.2 36.8-5.6 75.2 4.8 114.4 32 4-9.6 4-17.6 2.4-23.2-3.2-12.8 5.6-25.6 18.4-28.8 12.8-3.2 25.6 5.6 28.8 18.4 6.4 28.8-2.4 56.8-24.8 84-8.8 10.4-24 11.2-33.6 3.2-35.2-29.6-68-42.4-96.8-37.6-36 5.6-56.8 36.8-56.8 36.8-6.4 7.2-14.4 11.2-22.4 11.2z" fill="#444B54" p-id="1913"></path><path d="M652.8 520c-11.2 0-20.8-8-23.2-19.2-4.8-23.2-18.4-42.4-38.4-55.2-20-12.8-43.2-16.8-66.4-12-0.8 0-0.8 0-1.6 0.8-12.8 4-26.4-3.2-29.6-16-4-12.8 3.2-26.4 16-29.6 1.6-0.8 3.2-0.8 4.8-1.6 35.2-8 72-1.6 102.4 18.4 30.4 19.2 52 49.6 60 85.6 3.2 12.8-5.6 25.6-18.4 28.8h-5.6z" fill="#FFFFFF" p-id="1914"></path><path d="M832 1016H256c-13.6 0-24-10.4-24-24s10.4-24 24-24h576c13.6 0 24 10.4 24 24s-10.4 24-24 24z" fill="#444B54" p-id="1915"></path><path d="M952 1016c-6.4 0-12.8-2.4-16.8-7.2l-3.2-3.2c-0.8-1.6-1.6-2.4-2.4-4-0.8-1.6-0.8-3.2-1.6-4.8 0-1.6-0.8-3.2-0.8-4.8 0-6.4 2.4-12.8 7.2-16.8 0.8-0.8 2.4-2.4 4-3.2 1.6-0.8 2.4-1.6 4-2.4 1.6-0.8 3.2-0.8 4.8-1.6 3.2-0.8 6.4-0.8 9.6 0 1.6 0 3.2 0.8 4.8 1.6 1.6 0.8 3.2 1.6 4 2.4 1.6 0.8 2.4 1.6 3.2 3.2 4.8 4.8 7.2 10.4 7.2 16.8 0 1.6 0 3.2-0.8 4.8 0 1.6-0.8 3.2-1.6 4.8-0.8 1.6-1.6 3.2-2.4 4-0.8 1.6-1.6 2.4-3.2 3.2l-3.2 3.2c-1.6 0.8-2.4 1.6-4 2.4-1.6 0.8-3.2 0.8-4.8 1.6h-4z" fill="#444B54" p-id="1916"></path></svg>