<?xml version="1.0" standalone="no"?><!DOCTYPE svg PUBLIC "-//W3C//DTD SVG 1.1//EN" "http://www.w3.org/Graphics/SVG/1.1/DTD/svg11.dtd"><svg t="1554623255200" class="icon" style="" viewBox="0 0 1024 1024" version="1.1" xmlns="http://www.w3.org/2000/svg" p-id="1641" xmlns:xlink="http://www.w3.org/1999/xlink" width="200" height="200"><defs><style type="text/css"></style></defs><path d="M432 496c-77.6-60.8-77.6-179.2 0-240 77.6 60.8 77.6 178.4 0 240z" fill="#52DDB2" p-id="1642"></path><path d="M374.4 383.2h-2.4c-12.8-1.6-22.4-13.6-21.6-26.4 5.6-47.2 28.8-89.6 66.4-119.2 10.4-8 25.6-6.4 33.6 4s6.4 25.6-4 33.6c-27.2 21.6-44.8 52-48.8 87.2-0.8 11.2-11.2 20.8-23.2 20.8z" fill="#444B54" p-id="1643"></path><path d="M432 496c-12-98.4 71.2-181.6 169.6-169.6C613.6 424 530.4 508 432 496z" fill="#52DDB2" p-id="1644"></path><path d="M429.6 496c12-98.4-71.2-181.6-169.6-169.6C248 424 331.2 508 429.6 496z" fill="#FFFFFF" p-id="1645"></path><path d="M451.2 520.8c-6.4 0-13.6 0-20-0.8h-4c-12.8-1.6-22.4-13.6-20.8-26.4v-1.6c0.8-8.8 6.4-16 14.4-20 6.4-2.4 13.6-2.4 20 0.8 37.6 3.2 73.6-10.4 100.8-37.6 23.2-23.2 36.8-53.6 37.6-86.4-27.2 0.8-53.6 10.4-75.2 27.2-7.2 5.6-16 6.4-24 3.2s-13.6-10.4-14.4-19.2c-4-34.4-21.6-64-48-85.6-10.4-8-12-23.2-4-33.6 8-10.4 23.2-12 33.6-4 27.2 21.6 47.2 49.6 58.4 82.4 30.4-15.2 64.8-20.8 99.2-16.8 11.2 1.6 19.2 9.6 20.8 20.8 6.4 54.4-12 107.2-50.4 146.4-33.6 32.8-77.6 51.2-124 51.2zM260.8 393.6c-11.2 0-21.6-8-24-20-2.4-16.8-3.2-33.6-0.8-50.4 1.6-11.2 9.6-19.2 20.8-20.8 48-5.6 95.2 8 132.8 38.4 10.4 8 12 23.2 3.2 33.6-8 10.4-23.2 12-33.6 3.2-22.4-17.6-48.8-28-76-28.8 0 5.6 0.8 11.2 1.6 16.8 2.4 12.8-6.4 25.6-20 27.2-1.6 0.8-2.4 0.8-4 0.8z" fill="#444B54" p-id="1646"></path><path d="M831.2 692.8C842.4 856 712.8 992 552 992c-43.2 0-84-9.6-120-27.2-36 17.6-76.8 27.2-120 27.2-160.8 0-290.4-136-279.2-299.2C42.4 551.2 159.2 437.6 300.8 432c34.4-1.6 67.2 3.2 97.6 13.6 21.6 7.2 45.6 7.2 67.2 0" fill="#FF5576" p-id="1647"></path><path d="M124 600c-4.8 0-9.6-1.6-14.4-4.8-10.4-8-12.8-23.2-5.6-33.6 38.4-53.6 96-89.6 160-101.6 12.8-2.4 25.6 6.4 28 19.2 2.4 12.8-6.4 25.6-19.2 28-52 9.6-98.4 39.2-130.4 82.4-3.2 6.4-10.4 10.4-18.4 10.4zM84.8 689.6c-6.4 0-12.8-2.4-16.8-7.2-4.8-4-7.2-10.4-7.2-16.8s2.4-12.8 7.2-16.8c5.6-5.6 13.6-8 21.6-6.4 1.6 0 3.2 0.8 4.8 1.6 1.6 0.8 3.2 1.6 4 2.4 1.6 0.8 2.4 1.6 4 3.2 0.8 0.8 2.4 2.4 3.2 4 0.8 1.6 1.6 2.4 2.4 4 0.8 1.6 0.8 3.2 1.6 4.8 0 1.6 0.8 3.2 0.8 4.8 0 1.6 0 3.2-0.8 4.8s-0.8 3.2-1.6 4.8c-0.8 1.6-1.6 3.2-2.4 4-0.8 1.6-1.6 2.4-3.2 3.2-0.8 0.8-2.4 2.4-4 3.2-1.6 0.8-2.4 1.6-4 2.4-1.6 0.8-3.2 0.8-4.8 1.6-1.6-2.4-3.2-1.6-4.8-1.6z" fill="#FFFFFF" p-id="1648"></path><path d="M450.4 972.8c3.2 1.6 6.4 2.4 9.6 4 1.6 0.8 4 0.8 5.6 1.6 3.2 0.8 5.6 1.6 8.8 3.2 2.4 0.8 4 0.8 6.4 1.6 3.2 0.8 5.6 1.6 8.8 2.4 2.4 0.8 4.8 0.8 6.4 1.6 3.2 0.8 5.6 1.6 8.8 1.6 2.4 0 4.8 0.8 7.2 0.8 3.2 0.8 5.6 0.8 8.8 0.8 2.4 0 4.8 0.8 7.2 0.8 3.2 0 5.6 0.8 8.8 0.8h29.6c3.2 0 5.6 0 8.8-0.8h4.8c4-0.8 8-0.8 12.8-1.6h0.8c122.4-18.4 220.8-116.8 236.8-240.8 0.8-3.2 0.8-6.4 0.8-9.6v-4c0-4 0.8-7.2 0.8-11.2 0-9.6 0-20-0.8-30.4-9.6-141.6-124.8-254.4-264.8-260.8C646.4 473.6 712 556.8 712 656c0 141.6-56 264-200 264-40 0-63.2-38.4-88-22.4-44.8 28-95.2 48-152 38.4h-1.6c-50.4 0-58.4 41.6-10.4 51.2 1.6 0 3.2 0.8 4.8 0.8 1.6 0 4 0.8 5.6 0.8 2.4 0.8 5.6 0.8 8.8 0.8 1.6 0 3.2 0.8 5.6 0.8 3.2 0 6.4 0.8 9.6 0.8h18.4c43.2 0 84-9.6 120-27.2 4.8 2.4 8.8 4 13.6 6.4 0.8 1.6 2.4 1.6 4 2.4z" fill="#C95065" p-id="1649"></path><path d="M552 1016c-19.2 0-39.2-1.6-58.4-5.6-40.8-8-83.2-8-124 0-19.2 4-38.4 5.6-58.4 5.6-84 0-164.8-35.2-222.4-96.8C32 857.6 3.2 776 8.8 691.2 19.2 538.4 147.2 414.4 300 408c33.6-1.6 66.4 2.4 97.6 12 6.4 1.6 12 3.2 17.6 4.8 19.2 4.8 41.6 9.6 85.6 32 12 5.6 16.8 20 11.2 32-5.6 12-20 16.8-32 11.2-39.2-19.2-57.6-24-76-28-6.4-1.6-12.8-3.2-20-4.8-26.4-8-54.4-11.2-82.4-10.4-128.8 4-236 108.8-244.8 237.6-4.8 72 19.2 140 68 192.8C173.6 939.2 240 968 312 968c16.8 0 32.8-1.6 48.8-4.8 47.2-8.8 95.2-8.8 142.4 0 16 3.2 32.8 4.8 48.8 4.8 72 0 138.4-28.8 187.2-81.6 48.8-52 72.8-120.8 68-192.8-0.8-13.6 8.8-24.8 22.4-25.6 13.6-0.8 24.8 8.8 25.6 22.4 5.6 85.6-23.2 166.4-80.8 228.8C716.8 980.8 636 1016 552 1016z" fill="#444B54" p-id="1650"></path><path d="M696 432V232L584 312v120c-77.6 108-264 232-264 400 0 88 72 160 160 160s160-72 160-160c0-9.6 0.8-24 1.6-40 0.8 16.8 1.6 30.4 1.6 40 0 88 72 160 160 160s160-72 160-160c0.8-168-189.6-292-267.2-400z" fill="#EEEEEE" p-id="1651"></path><path d="M584 432c-65.6 91.2-208 193.6-251.2 324v0.8c15.2 4.8 32 7.2 48.8 7.2 108 0 200-155.2 242.4-284 25.6-78.4 32-158.4 28.8-216.8L584 312v120z" fill="#FFFFFF" p-id="1652"></path><path d="M730.4 974.4c3.2 1.6 5.6 3.2 8.8 4 1.6 0.8 3.2 1.6 4.8 1.6 3.2 1.6 6.4 2.4 9.6 3.2 1.6 0.8 3.2 0.8 4 1.6 4.8 1.6 8.8 2.4 13.6 3.2l14.4 2.4h4.8c3.2 0 7.2 0.8 10.4 0.8h5.6c4.8 0 8.8 0 13.6-0.8h1.6c4.8-0.8 8.8-0.8 13.6-2.4 1.6 0 2.4-0.8 4-0.8 3.2-0.8 5.6-1.6 8.8-2.4 72.8-20.8 121.6-93.6 116-172-4-46.4-21.6-89.6-47.2-130.4-4.8-2.4-11.2-3.2-17.6-2.4-94.4 15.2-118.4-63.2-162.4-50.4-58.4 16.8-74.4 36-85.6 108-4.8 32-8 52.8-8.8 53.6 0.8 16.8 1.6 30.4 1.6 40 0 4.8 0 9.6 0.8 14.4v3.2c0.8 4.8 1.6 9.6 2.4 13.6 0 0.8 0 1.6 0.8 2.4 0.8 4 1.6 8 3.2 12 0 0.8 0.8 1.6 0.8 2.4 1.6 4 3.2 8.8 4.8 12.8 0 0.8 0.8 1.6 0.8 2.4 4 8.8 8 16.8 12.8 24 0.8 0.8 0.8 1.6 1.6 2.4 2.4 4 4.8 7.2 8 10.4l1.6 1.6c2.4 3.2 5.6 6.4 8 8.8l1.6 1.6c3.2 3.2 6.4 6.4 9.6 8.8 0.8 0.8 1.6 1.6 2.4 1.6 7.2 5.6 15.2 11.2 23.2 15.2 0.8 4 2.4 4.8 4 5.6z" fill="#B8BCB8" p-id="1653"></path><path d="M800 832c0 88-72 160-160 160s-160-72-160-160 160-312 160-312 160 224 160 312z" fill="#EEEEEE" p-id="1654"></path><path d="M761.6 685.6c-12.8-31.2-60.8-16-52.8 17.6 7.2 28.8 11.2 54.4 11.2 75.2 0 72.8-36.8 137.6-92 176-16.8 11.2-8.8 38.4 12 38.4h0.8c88 0 160-72 160-160-0.8-36-16.8-92-39.2-147.2z" fill="#B8BCB8" p-id="1655"></path><path d="M480 1016c-101.6 0-184-82.4-184-184 0-128.8 97.6-229.6 183.2-318.4 32.8-33.6 64-65.6 85.6-96 8-10.4 22.4-13.6 33.6-5.6 10.4 8 13.6 22.4 5.6 33.6-23.2 32.8-56 65.6-89.6 101.6C434.4 629.6 344 722.4 344 832c0 75.2 60.8 136 136 136 24 0 47.2-6.4 68-18.4 11.2-6.4 26.4-2.4 32.8 8.8 6.4 11.2 2.4 26.4-8.8 32.8-28 16-60 24.8-92 24.8zM804 1016c-32.8 0-65.6-8.8-94.4-25.6-11.2-6.4-15.2-21.6-8-32.8 6.4-11.2 21.6-15.2 32.8-8 20.8 12.8 44.8 19.2 69.6 19.2 75.2 0 136-60.8 136-136 0-108.8-91.2-201.6-171.2-283.2-25.6-25.6-49.6-51.2-70.4-75.2l-37.6 59.2c-7.2 11.2-21.6 14.4-32.8 7.2-11.2-7.2-14.4-21.6-7.2-32.8l56-88c4-6.4 12-11.2 19.2-11.2 8 0 15.2 3.2 20 9.6 21.6 30.4 53.6 62.4 87.2 96.8 86.4 88 184.8 188.8 184.8 316.8 0 101.6-83.2 184-184 184z" fill="#444B54" p-id="1656"></path><path d="M640 1016c-101.6 0-184-82.4-184-184 0-13.6 10.4-24 24-24s24 10.4 24 24c0 75.2 60.8 136 136 136s136-60.8 136-136c0-44.8-34.4-104-68-161.6-6.4-11.2-2.4-26.4 8.8-32.8 11.2-6.4 26.4-2.4 32.8 8.8 36.8 63.2 74.4 128 74.4 185.6 0 101.6-82.4 184-184 184zM696 376c-13.6 0-24-10.4-24-24V232c0-13.6 10.4-24 24-24s24 10.4 24 24v120c0 13.6-10.4 24-24 24zM584 445.6c-13.6 0-24-10.4-24-24V312c0-13.6 10.4-24 24-24s24 10.4 24 24v109.6c0 12.8-10.4 24-24 24z" fill="#444B54" p-id="1657"></path><path d="M992 1016H320c-13.6 0-24-10.4-24-24s10.4-24 24-24h672c13.6 0 24 10.4 24 24s-10.4 24-24 24z" fill="#444B54" p-id="1658"></path><path d="M80 1016c-6.4 0-12.8-2.4-16.8-7.2-0.8-0.8-2.4-2.4-3.2-4-0.8-1.6-1.6-2.4-2.4-4-0.8-1.6-0.8-3.2-1.6-4.8 0-1.6-0.8-3.2-0.8-4.8 0-1.6 0-3.2 0.8-4.8 0-1.6 0.8-3.2 1.6-4.8 0.8-1.6 1.6-2.4 2.4-4 0.8-1.6 1.6-2.4 3.2-4 8.8-8.8 24.8-8.8 33.6 0 0.8 0.8 2.4 2.4 3.2 4 0.8 1.6 1.6 2.4 2.4 4 0.8 1.6 0.8 3.2 1.6 4.8 0 1.6 0.8 3.2 0.8 4.8 0 1.6 0 3.2-0.8 4.8 0 1.6-0.8 3.2-1.6 4.8-0.8 1.6-1.6 3.2-2.4 4-0.8 1.6-1.6 2.4-3.2 4-4 4.8-10.4 7.2-16.8 7.2z" fill="#444B54" p-id="1659"></path></svg>